<svg xmlns="http://www.w3.org/2000/svg" version="1.1" xmlns:xlink="http://www.w3.org/1999/xlink" xmlns:svgjs="http://svgjs.com/svgjs" width="512" height="512" x="0" y="0" viewBox="0 0 511.671 511.671" style="enable-background:new 0 0 512 512" xml:space="preserve"><g><circle xmlns="http://www.w3.org/2000/svg" cx="255.835" cy="261.055" fill="#0ED2B3" r="243.116" data-original="#0ed2b3"></circle><path xmlns="http://www.w3.org/2000/svg" d="m498.955 261.051c0 134.27-108.85 243.12-243.12 243.12-71.28 0-135.39-30.67-179.86-79.54 42.05 34.78 95.99 55.67 154.82 55.67 134.27 0 243.12-108.85 243.12-243.12 0-63.01-23.97-120.42-63.3-163.61 53.95 44.59 88.34 112.02 88.34 187.48z" fill="#0AB69F" data-original="#0ab69f"></path><circle xmlns="http://www.w3.org/2000/svg" cx="255.835" cy="261.055" fill="#F9F3F1" r="187.31" data-original="#f9f3f1"></circle><path xmlns="http://www.w3.org/2000/svg" d="m433.331 108.366-15.686-80.126c-2.822-14.417-17.153-23.522-31.404-19.953-13.798 3.456-22.148 17.479-18.612 31.257l9.922 38.664c1.111 4.331-1.989 8.605-6.451 8.893l-39.834 2.57c-14.194.916-24.933 13.207-23.935 27.395 1.03 14.654 14.135 25.451 28.715 23.659l81.037-9.96c10.888-1.34 18.355-11.633 16.248-22.399z" fill="#01998D" data-original="#01998d"></path><path xmlns="http://www.w3.org/2000/svg" d="m417.085 130.761-81.04 9.96c-1.06.13-2.12.19-3.16.19-13.27 0-24.6-10.26-25.55-23.85-.18-2.52.02-4.98.54-7.33 3.79 6.52 10.84 10.79 18.71 10.79.88 0 1.78-.06 2.68-.17l68.53-8.42c9.21-1.13 15.53-9.84 13.75-18.94l-13.27-67.77c-1.54-7.87-7.13-13.86-14.14-16.31.69-.23 1.39-.44 2.11-.62 14.25-3.57 28.58 5.53 31.4 19.95l15.69 80.12c2.1 10.77-5.36 21.06-16.25 22.4z" fill="#008B81" data-original="#008b81"></path><path xmlns="http://www.w3.org/2000/svg" d="m263.336 124.147v-29.826c0-4.142-3.357-7.5-7.5-7.5-4.142 0-7.5 3.358-7.5 7.5v29.826c0 4.142 3.358 7.5 7.5 7.5s7.5-3.358 7.5-7.5z" fill="#000000" data-original="#000000"></path><path xmlns="http://www.w3.org/2000/svg" d="m255.836 435.289c4.143 0 7.5-3.358 7.5-7.5v-29.826c0-4.142-3.357-7.5-7.5-7.5-4.142 0-7.5 3.358-7.5 7.5v29.826c0 4.142 3.358 7.5 7.5 7.5z" fill="#000000" data-original="#000000"></path><path xmlns="http://www.w3.org/2000/svg" d="m430.07 261.056c0-4.142-3.357-7.5-7.5-7.5h-29.826c-4.143 0-7.5 3.358-7.5 7.5s3.357 7.5 7.5 7.5h29.826c4.143 0 7.5-3.358 7.5-7.5z" fill="#000000" data-original="#000000"></path><path xmlns="http://www.w3.org/2000/svg" d="m126.427 261.056c0-4.142-3.358-7.5-7.5-7.5h-29.826c-4.142 0-7.5 3.358-7.5 7.5s3.358 7.5 7.5 7.5h29.826c4.142 0 7.5-3.358 7.5-7.5z" fill="#000000" data-original="#000000"></path><path xmlns="http://www.w3.org/2000/svg" d="m178.2 141.587c1.389 2.406 3.91 3.751 6.502 3.751 1.272 0 2.562-.324 3.743-1.006 3.587-2.071 4.816-6.658 2.745-10.245l-7.881-13.651c-2.071-3.587-6.658-4.816-10.245-2.745s-4.816 6.658-2.745 10.245z" fill="#000000" data-original="#000000"></path><path xmlns="http://www.w3.org/2000/svg" d="m323.225 377.779c-3.587 2.071-4.816 6.658-2.745 10.245l7.882 13.651c1.39 2.406 3.91 3.751 6.502 3.751 1.272 0 2.563-.325 3.743-1.006 3.587-2.071 4.816-6.658 2.745-10.245l-7.882-13.651c-2.072-3.588-6.659-4.816-10.245-2.745z" fill="#000000" data-original="#000000"></path><path xmlns="http://www.w3.org/2000/svg" d="m136.367 183.42-13.651-7.881c-3.588-2.071-8.174-.842-10.245 2.745s-.842 8.174 2.745 10.245l13.651 7.881c1.181.682 2.471 1.006 3.743 1.006 2.592 0 5.113-1.346 6.502-3.751 2.071-3.588.842-8.174-2.745-10.245z" fill="#000000" data-original="#000000"></path><path xmlns="http://www.w3.org/2000/svg" d="m375.304 338.691 13.65 7.881c1.181.682 2.471 1.006 3.743 1.006 2.592 0 5.113-1.345 6.502-3.751 2.071-3.587.842-8.174-2.745-10.245l-13.65-7.881c-3.587-2.072-8.175-.842-10.245 2.745-2.071 3.587-.842 8.173 2.745 10.245z" fill="#000000" data-original="#000000"></path><path xmlns="http://www.w3.org/2000/svg" d="m118.973 347.578c1.272 0 2.562-.324 3.743-1.006l13.651-7.881c3.587-2.071 4.816-6.658 2.745-10.245s-6.659-4.816-10.245-2.745l-13.651 7.881c-3.587 2.071-4.816 6.658-2.745 10.245 1.389 2.406 3.91 3.751 6.502 3.751z" fill="#000000" data-original="#000000"></path><path xmlns="http://www.w3.org/2000/svg" d="m379.061 197.416c1.272 0 2.563-.325 3.743-1.006l13.65-7.881c3.587-2.071 4.816-6.658 2.745-10.245-2.072-3.588-6.659-4.814-10.245-2.745l-13.65 7.881c-3.587 2.071-4.816 6.658-2.745 10.245 1.39 2.406 3.91 3.751 6.502 3.751z" fill="#000000" data-original="#000000"></path><path xmlns="http://www.w3.org/2000/svg" d="m173.064 404.42c1.181.682 2.471 1.006 3.743 1.006 2.592 0 5.113-1.346 6.502-3.751l7.881-13.651c2.071-3.587.842-8.174-2.745-10.245-3.588-2.073-8.174-.842-10.245 2.745l-7.881 13.651c-2.072 3.587-.843 8.174 2.745 10.245z" fill="#000000" data-original="#000000"></path><path xmlns="http://www.w3.org/2000/svg" d="m254.431 310.92c0-4.682-3.184-8.615-6.555-8.615h-55.063v-7.117c0-21.538 60.681-34.648 60.681-74.915 0-22.475-18.354-37.27-40.079-37.27-20.414 0-38.394 13.11-38.394 33.149 0 8.428 3.746 11.05 8.99 11.05 6.555 0 10.488-3.746 10.488-7.492 0-12.735 8.428-18.542 18.916-18.542 14.234 0 20.227 10.488 20.227 19.665 0 28.842-61.243 44.013-61.243 74.353v18.167c0 3.933 5.057 6.555 8.802 6.555h66.674c3.372.002 6.556-4.306 6.556-8.988z" fill="#000000" data-original="#000000"></path><path xmlns="http://www.w3.org/2000/svg" d="m337.213 270.653h-9.177v-25.846c0-4.682-5.057-6.555-9.926-6.555-5.057 0-9.927 1.873-9.927 6.555v25.846h-27.531l38.581-76.975c.563-1.124.937-2.06.937-2.997 0-4.682-6.181-7.679-9.926-7.679-3.184 0-6.556 1.498-8.615 5.431l-45.323 89.335c-.749 1.311-1.124 2.81-1.124 4.121 0 4.495 2.997 7.304 6.929 7.304h46.072v24.16c0 4.308 4.87 6.555 9.927 6.555 4.869 0 9.926-2.248 9.926-6.555v-24.16h9.177c3.559 0 6.742-4.682 6.742-9.177 0-4.681-2.247-9.363-6.742-9.363z" fill="#000000" data-original="#000000"></path><path xmlns="http://www.w3.org/2000/svg" d="m436.956 87.848-11.952-61.049c-1.764-9.011-7.004-16.687-14.755-21.611-7.751-4.924-16.925-6.406-25.831-4.177-8.625 2.161-15.88 7.557-20.429 15.197-3.022 5.075-4.595 10.729-4.669 16.478-32.087-14.563-67.192-22.246-103.484-22.246-66.942 0-129.877 26.068-177.212 73.403-47.336 47.335-73.404 110.271-73.404 177.213 0 33.444 6.481 65.919 19.265 96.523 1.596 3.823 5.991 5.626 9.811 4.03 3.822-1.596 5.626-5.989 4.03-9.811-12.014-28.763-18.105-59.293-18.105-90.742 0-62.936 24.508-122.104 69.01-166.605s103.67-69.01 166.605-69.01c37.818 0 74.266 8.867 106.997 25.589l7.344 28.615-37.463 2.416c-23.598-10.174-49.591-15.815-76.878-15.815-107.419 0-194.811 87.392-194.811 194.811 0 107.418 87.392 194.81 194.811 194.81 83.488 0 157.626-53.074 184.489-132.083l.244-.723c1.324-3.924-.783-8.18-4.707-9.505-3.926-1.326-8.181.782-9.505 4.707l-.239.708c-24.789 72.91-93.22 121.896-170.282 121.896-99.148 0-179.811-80.663-179.811-179.81 0-99.148 80.663-179.811 179.811-179.811 19.384 0 38.053 3.099 55.558 8.803-1.216 1.043-2.367 2.179-3.441 3.408-5.85 6.695-8.728 15.267-8.104 24.135.644 9.16 4.901 17.42 11.989 23.26 6.009 4.951 13.337 7.572 20.982 7.572 1.371 0 2.753-.084 4.14-.255l7.105-.873c4.11-.505 7.034-4.247 6.529-8.358-.506-4.112-4.254-7.03-8.359-6.529l-7.105.873c-4.993.614-9.874-.81-13.754-4.006-3.881-3.197-6.212-7.719-6.564-12.735-.342-4.855 1.234-9.548 4.437-13.213 3.203-3.666 7.642-5.858 12.499-6.171l39.834-2.569c4.362-.281 8.337-2.472 10.903-6.01 2.567-3.539 3.417-7.997 2.33-12.231l-9.922-38.664c-1.21-4.714-.505-9.614 1.985-13.797 2.49-4.182 6.463-7.137 11.185-8.32 4.875-1.221 9.899-.409 14.143 2.287 4.243 2.696 7.112 6.898 8.078 11.832l15.687 80.126c.615 3.141-.081 6.298-1.961 8.889s-4.664 4.233-7.841 4.624l-39.564 4.86c-4.111.505-7.035 4.247-6.53 8.358.505 4.112 4.27 7.033 8.358 6.529l11.69-1.436c28.297 31.781 45.524 73.624 45.524 119.424 0 8.383-.583 16.814-1.732 25.061-.571 4.103 2.291 7.892 6.394 8.463 4.107.569 7.891-2.292 8.464-6.393 1.244-8.93 1.875-18.059 1.875-27.131 0-45.968-16.02-88.254-42.749-121.607l10.1-1.241c7.248-.891 13.865-4.792 18.153-10.703 2.624-3.618 4.257-7.832 4.811-12.199 32.715 41.383 50.488 92.194 50.488 145.75 0 62.935-24.509 122.104-69.01 166.605-44.502 44.502-103.671 69.01-166.605 69.01-41.558 0-82.408-10.965-118.134-31.708-34.677-20.135-63.862-48.987-84.399-83.438-2.122-3.559-6.725-4.724-10.283-2.602-3.558 2.121-4.723 6.725-2.602 10.282 21.839 36.635 52.875 67.316 89.751 88.729 38.011 22.071 81.466 33.737 125.666 33.737 66.941 0 129.877-26.068 177.212-73.403s73.403-110.27 73.403-177.212c.001-65.076-24.638-126.359-69.494-173.211z" fill="#000000" data-original="#000000"></path></g></svg>