<svg xmlns="http://www.w3.org/2000/svg" version="1.1" xmlns:xlink="http://www.w3.org/1999/xlink" xmlns:svgjs="http://svgjs.com/svgjs" width="512" height="512" x="0" y="0" viewBox="0 0 512 512" style="enable-background:new 0 0 512 512" xml:space="preserve"><g><g xmlns="http://www.w3.org/2000/svg" id="Flat"><rect fill="#C7C7C5" height="328" rx="24" width="368" x="120" y="120" data-original="#c7c7c5"></rect><rect fill="#CFCFCD" height="328" rx="24" width="368" x="120" y="88" data-original="#cfcfcd"></rect><rect fill="#D6D6D4" height="328" rx="24" width="368" x="120" y="56" data-original="#d6d6d4"></rect><path d="m408 384h-264a24 24 0 0 1 -24-24v-280a24 24 0 0 1 24-24h320a24 24 0 0 1 24 24v224z" fill="#E0E0DE" data-original="#e0e0de"></path><path d="m144 56h320a24 24 0 0 1 24 24v64a0 0 0 0 1 0 0h-368a0 0 0 0 1 0 0v-64a24 24 0 0 1 24-24z" fill="#348FD9" data-original="#348fd9"></path><path d="m408 384v-56a24 24 0 0 1 24-24h56z" fill="#EBEBE9" data-original="#ebebe9"></path><rect fill="#D6D6D4" height="64" rx="16" width="32" x="168" y="24" data-original="#d6d6d4"></rect><rect fill="#D6D6D4" height="64" rx="16" width="32" x="248" y="24" data-original="#d6d6d4"></rect><rect fill="#D6D6D4" height="64" rx="16" width="32" x="328" y="24" data-original="#d6d6d4"></rect><rect fill="#D6D6D4" height="64" rx="16" width="32" x="408" y="24" data-original="#d6d6d4"></rect><path d="m280 280-45.592 9.1a119.619 119.619 0 1 0 20.515 33.057z" fill="#348FD9" data-original="#348fd9"></path><path d="m216 344h-48v-48h-48v48h-48v48h48v48h48v-48h48z" fill="#EBEBE9" data-original="#ebebe9"></path><g fill="#17588F"><path d="m232 184h16v16h-16z" fill="#17588F" data-original="#17588f"></path><path d="m168 184h16v16h-16z" fill="#17588F" data-original="#17588f"></path><path d="m360 184h16v16h-16z" fill="#17588F" data-original="#17588f"></path><path d="m424 184h16v16h-16z" fill="#17588F" data-original="#17588f"></path><path d="m296 184h16v16h-16z" fill="#17588F" data-original="#17588f"></path><path d="m232 248h16v16h-16z" fill="#17588F" data-original="#17588f"></path><path d="m360 248h16v16h-16z" fill="#17588F" data-original="#17588f"></path><path d="m424 248h16v16h-16z" fill="#17588F" data-original="#17588f"></path><path d="m296 248h16v16h-16z" fill="#17588F" data-original="#17588f"></path><path d="m360 312h16v16h-16z" fill="#17588F" data-original="#17588f"></path><path d="m296 312h16v16h-16z" fill="#17588F" data-original="#17588f"></path></g></g></g></svg>