<svg xmlns="http://www.w3.org/2000/svg" version="1.1" xmlns:xlink="http://www.w3.org/1999/xlink" xmlns:svgjs="http://svgjs.com/svgjs" width="512" height="512" x="0" y="0" viewBox="0 0 53 53" style="enable-background:new 0 0 512 512" xml:space="preserve"><g><g xmlns="http://www.w3.org/2000/svg" id="_x35_4"><g><g><g><g><path d="m50.4993324 45.3812943c0 .7684975-.618145 1.3866425-1.3866959 1.3866425h-45.2252743c-.7685497 0-1.3866932-.618145-1.3866932-1.3866425 0-.7601891.6181436-1.386692 1.3866932-1.386692h45.2252731c.7685521-.0000001 1.3866971.6265029 1.3866971 1.386692z" fill="#C7754F" data-original="#c7754f"></path></g></g><g><g><path d="m14.2806978 46.7679367h-10.3900141c-.7700195 0-1.3900146-.6199951-1.3900146-1.3900146 0-.7600098.6199951-1.3800049 1.3900146-1.3800049h10.3900146c-.7700195 0-1.3800049.6199951-1.3800049 1.3800049-.0000005.7700195.6099849 1.3900146 1.3800044 1.3900146z" fill="#AB604B" data-original="#ab604b"></path></g></g><g><g><g><g><g><path d="m31.0914822 33.4374504v10.5569611h-27.1113961v-10.5569611c0-3.0016937 2.0652282-5.6031628 4.9867983-6.2995529l3.6821566-.8725128c.1024103-.0243034 5.2113943-1.2367592 4.8907499-1.1606655 1.1526165.2745819 3.3458633.7970676 3.2257462.7684517.1024361.0241928 5.7118301 1.3489838 5.355072 1.2647266 2.9056456.6963901 4.9708731 3.2978592 4.9708731 6.2995529z" fill="#5B5E8B" data-original="#5b5e8b"></path></g></g><g><g><path d="m17.194 39.354h.683v4.641h-.683z" fill="#312E4B" data-original="#312e4b"></path></g></g><g><g><path d="m18.5864201 25.3511162-3.8520145.9102287-3.6813383.8776398c-2.9256163.6989269-4.9897628 3.2994099-4.9897628 6.2981377v10.5569267h-2.0804153v-10.5569268c0-2.9987278 2.0641465-5.5992107 4.9816284-6.2981377l3.6813374-.8776398c.1024427-.0241661 5.2129955-1.2296772 4.8922482-1.1540184.1000041.0232564 1.148323.2670461 1.0483169.2437898z" fill="#312E4B" data-original="#312e4b"></path></g></g><g><g><path d="m22.4225273 26.2573719-2.073143 6.4836903-2.8095932-1.9931679-2.8095941 1.9931679-2.0811558-6.4756775 4.8507852-1.1526528h.0879402l3.1777707.760439z" fill="#DEDDFF" data-original="#deddff"></path></g></g><g><g><g><path d="m20.8899364 24.3985081v2.5512066c0 1.7622337-1.4334259 3.1890774-3.182457 3.1890774-1.7155943 0-3.1890783-1.3758373-3.1890783-3.1890774v-2.5512066z" fill="#FFAF93" data-original="#ffaf93"></path></g></g><g><g><path d="m16.4449787 29.1853561.0197468.0197449c.4668255.4668255 1.0652065.7890129 1.7490292.8876591-1.7530308.3505211-3.6953535-1.0541935-3.6953535-3.1430454v-1.5451965c1.215867.7959671 2.6545744 1.0851898 4.0372858.8876591-1.5024147-.2168179-2.838582-1.0443954-3.6230345-2.0251846h5.957284v2.1501179c-1.1300545.6001072-2.4107761.850893-3.5046844.7824707-1.0586244-.0525743-1.6832925 1.2361735-.9402734 1.9857748z" fill="#EE8778" data-original="#ee8778"></path></g></g><g><g><path d="m23.5423183 13.6325941v6.8826456c0 3.2240334-2.613596 5.8376274-5.8376274 5.8376274h-.0000134c-3.2240324 0-5.8376274-2.6135941-5.8376274-5.8376274v-6.8826456z" fill="#FFAF93" data-original="#ffaf93"></path></g></g><g><g><path d="m23.5398293 13.6297617v6.8826799c0 .1841297-.0065823.3682194-.0263271.5457668-.0197048.2564487-.0657387.5062771-.1249332.7561436-.5851784 2.6038609-2.9063034 4.5370216-5.6810894 4.5370216-3.2243099 0-5.8389311-2.6103764-5.8389311-5.838932v-6.8826799z" fill="#FFAF93" data-original="#ffaf93"></path></g></g><g><g><path d="m24.7872105 11.9302111v7.3424139h-1.2444821v-5.641634h-11.6732301v5.641634h-1.277648v-7.3424139z" fill="#8B4F4F" data-original="#8b4f4f"></path></g></g><g><g><path d="m25.595583 19.014349c0 1.144413-.9178543 2.0621986-2.0621986 2.0621986v-4.1130543c1.1443443 0 2.0621986.9177857 2.0621986 2.0508557z" fill="#FFAF93" data-original="#ffaf93"></path></g></g><g><g><path d="m24.0836163 17.0461388c-.1760635-.0484009-.3581047-.082634-.5502224-.082634v4.1130581c.1921177 0 .3741589-.0342731.5502224-.0827141z" fill="#EE8778" data-original="#ee8778"></path></g></g><g><g><path d="m13.5649643 13.0277996v7.484642c0 2.9266491 2.1640368 5.3718071 4.9907227 5.7797356-1.3823185.1974735-2.8210745-.091465-4.0372858-.8876591-1.6177015-1.0577717-2.6498528-2.8646946-2.6498528-4.8920765v.5654716c-1.1441488 0-2.0646763-.9205265-2.0646763-2.0646343 0-.6509953.3024416-1.2296314.7824707-1.6109734.3550558-.2761955.7955942-.4405804 1.2822056-.4405804v-3.9339256h1.6964159z" fill="#EE8778" data-original="#ee8778"></path></g></g><g><g><g><path d="m18.1664295 19.7289448v.8335972c0 .2829895-.2291107.5120964-.5120964.5120964-.2829895 0-.5121002-.2291069-.5121002-.5120964v-.8335972c0-.2829876.2291107-.5120983.5121002-.5120983.2858467 0 .5120964.2327079.5120964.5120983z" fill="#EE8778" data-original="#ee8778"></path></g></g></g><g><g><path d="m15.876008 22.1292534c.1826849.8400803.9296255 1.469595 1.8244333 1.4695873.8948174-.0000095 1.6417465-.6295414 1.8244324-1.4696236z" fill="#EE8778" data-original="#ee8778"></path></g></g><g><g><path d="m16.0516567 17.6775131c-.1178274-.5418262-.5995827-.9478474-1.1767101-.9478474-.5771332 0-1.0588837.4060211-1.1767111.9478474z" fill="#312E4B" data-original="#312e4b"></path></g></g><g><g><path d="m21.7101021 17.6775131c-.1178284-.5418262-.5995827-.9478474-1.176712-.9478474-.5771332 0-1.0588837.4060211-1.1767101.9478474z" fill="#312E4B" data-original="#312e4b"></path></g></g><g><g><g><path d="m24.7872105 13.0834417c-3.1775379 5.7162733-14.1953602 0-14.1953602 0v-1.0702858c0-1.0536251.3899632-2.0824385 1.1532307-2.8042326 3.9740219-3.7915225 8.8773022-.4148264 8.8773022-.4148264s2.5470428-1.0702353 3.741745 1.0453711c.5960197 1.0471134.374855 2.1206074.4230823 3.2439737z" fill="#AB604B" data-original="#ab604b"></path></g></g></g><g><g><g><path d="m13.6055727 7.9538093c-.6279621.2821546-1.2550631.6774859-1.8604918 1.2551141-.7632675.7217941-1.1532307 1.7506075-1.1532307 2.8042326v1.0702858s1.2441263.6441154 3.0137224 1.2836742v-6.4133067z" fill="#8B4F4F" data-original="#8b4f4f"></path></g></g></g></g></g><g><g><path d="m22.4225273 26.2566471 2.2345944 5.2863178h-2.2345944l1.3674374 2.2345963-6.2535286 7.7376976z" fill="#312E4B" data-original="#312e4b"></path></g></g><g><g><path d="m12.6503439 26.2566471-2.2345944 5.2863178h2.2345944l-1.3674383 2.2345963 6.2535305 7.7376976z" fill="#312E4B" data-original="#312e4b"></path></g></g><g><g><path d="m20.3493843 32.7410622-2.8095932 8.7729187-2.8095941-8.7729187 2.8095941-1.9931679z" fill="#C6C6F7" data-original="#c6c6f7"></path></g></g><g><g><path d="m18.1961174 32.9491386.4402885 5.1309205-1.0966148 3.4339218-1.0966167-3.4339218.4402885-5.1309205-.6564255-1.2726917 1.3127537-.9285526 1.304739.9285526z" fill="#E83D62" data-original="#e83d62"></path></g></g><g><g><path d="m29.3637772 37.3222275v1.2270813c0 .1544075-.1219196.2763252-.2681923.2763252h-5.6317501c-.1462727 0-.2681923-.1219177-.2681923-.2763252v-1.2270813c0-.1544075.1219196-.2763252.2681923-.2763252h5.6317501c.1462726 0 .2681923.1219177.2681923.2763252z" fill="#312E4B" data-original="#312e4b"></path></g></g></g></g></g><g><g><g><path d="m41.6501503 3.9418528v6.7500038c0 .7978325-.6521263 1.4499607-1.4499168 1.4499607h-7.5410805l-1.7552128 1.5886765c-.2913628.263629-.7561646.0138884-.6937504-.3815546l.1873264-1.2071218h-1.2626342c-.7839432 0-1.422184-.6382399-1.422184-1.4291277v-6.7431019c0-.7977896.6521301-1.449918 1.4499187-1.449918h11.0653534c.7839432 0 1.4221802.6382401 1.4221802 1.422183z" fill="#E83D62" data-original="#e83d62"></path></g></g></g><g><g><g><path d="m30.8419399 12.141016h-1.710022c-.7799683 0-1.4199829-.6400146-1.4199829-1.4299927v-6.7399902c0-.7999878.6499634-1.4500122 1.4500122-1.4500122h1.7099609c-.7999878 0-1.4500122.6500244-1.4500122 1.4500122v6.7399902c.0000001.7899781.6400147 1.4299927 1.420044 1.4299927z" fill="#CE2955" data-original="#ce2955"></path></g></g></g><g><g><g><g><path d="m39.1340027 5.3483191c0 .2123256-.1721535.3844771-.3959656.3844771h-.9296532c-.212326 0-.3844757-.1721516-.3844757-.3844771 0-.21807.1721497-.3902211.3844757-.3902211h.9296532c.2238121-.0000001.3959656.172151.3959656.3902211z" fill="#CE2955" data-original="#ce2955"></path></g></g><g><g><path d="m38.9847908 9.3194265c0 .212326-.1664047.3845129-.3844757.3845129h-7.4696655c-.212326 0-.3902225-.1721869-.3902225-.3845129 0-.21807.1778965-.3902206.3902225-.3902206h7.4696655c.218071 0 .3844757.1721506.3844757.3902206z" fill="#CE2955" data-original="#ce2955"></path></g></g><g><g><path d="m30.740427 5.3483191c0-.21807.1721516-.3902211.3844776-.3902211h5.25457c.212326 0 .3844795.1721511.3844795.3902211 0 .2123256-.1721535.3844771-.3844795.3844771h-5.25457c-.212326 0-.3844776-.1721516-.3844776-.3844771z" fill="#CE2955" data-original="#ce2955"></path></g></g><g><g><path d="m38.9847908 7.3338904c0 .212326-.1664047.3844771-.3844757.3844771h-7.4696655c-.212326 0-.3902225-.1721511-.3902225-.3844771 0-.21807.1778965-.3902211.3902225-.3902211h7.4696655c.218071 0 .3844757.1721511.3844757.3902211z" fill="#CE2955" data-original="#ce2955"></path></g></g></g></g></g><g><g><path d="m50.4993324 45.3812943c0 .7684975-.618145 1.3866425-1.3866959 1.3866425h-45.2252743c-.7685497 0-1.3866932-.618145-1.3866932-1.3866425 0-.7601891.6181436-1.386692 1.3866932-1.386692h45.2252731c.7685521-.0000001 1.3866971.6265029 1.3866971 1.386692z" fill="#C7754F" data-original="#c7754f"></path></g></g><g><g><path d="m14.2806978 46.7679367h-10.3900141c-.7700195 0-1.3900146-.6199951-1.3900146-1.3900146 0-.7600098.6199951-1.3800049 1.3900146-1.3800049h10.3900146c-.7700195 0-1.3800049.6199951-1.3800049 1.3800049-.0000005.7700195.6099849 1.3900146 1.3800044 1.3900146z" fill="#AB604B" data-original="#ab604b"></path></g></g><g><g><g><g><path d="m35.1103668 24.9009838c0 1.3628063-1.104847 2.4676208-2.4676552 2.4676208-1.357193 0-2.4676552-1.1048145-2.4676552-2.4676208 0-1.3684216 1.1104622-2.4676571 2.4676552-2.4676571 1.3628083 0 2.4676552 1.0992356 2.4676552 2.4676571z" fill="#FFAF93" data-original="#ffaf93"></path></g></g><g><g><path d="m45.5361366 24.9009838c0 1.3628063-1.1048126 2.4676208-2.4676208 2.4676208-1.3572273 0-2.4676552-1.1048145-2.4676552-2.4676208 0-1.3684216 1.1104279-2.4676571 2.4676552-2.4676571 1.3628082 0 2.4676208 1.0992356 2.4676208 2.4676571z" fill="#FFAF93" data-original="#ffaf93"></path></g></g></g><g><g><path d="m33.991478 31.5162563.7186393 3.5561314h6.0924912l.7186432-3.5561314z" fill="#FFAF93" data-original="#ffaf93"></path></g></g><g><g><path d="m50.4993324 42.4511871v8.0284271h-25.5678825v-8.0284271c0-3.1524734 2.553051-5.7055244 5.705555-5.7055244h14.1621628c3.1524696 0 5.7001647 2.553051 5.7001647 5.7055244z" fill="#65B9FF" data-original="#65b9ff"></path></g></g><g><g><path d="m34.4429817 36.7456627c-3.1518497 0-5.7036438 2.5517616-5.7036438 5.7036095v8.0310593h-3.8080082v-8.0310593c0-3.1518478 2.5517597-5.7036095 5.7036095-5.7036095z" fill="#3E7FFF" data-original="#3e7fff"></path></g></g><g><g><path d="m43.051403 35.8707008v.8737259h-10.9035835v-.8737259c0-.961956.7798195-1.7417755 1.7417755-1.7417755h7.4200287c.9619599 0 1.7417793.7798195 1.7417793 1.7417755z" fill="#DEDDFF" data-original="#deddff"></path></g></g><g><g><path d="m35.5926704 34.126606c-.9590263 0-1.7385864.7795258-1.7385864 1.7441673v.8748894h-1.7049026v-.8748894c0-.9646416.7795601-1.7441673 1.7385521-1.7441673z" fill="#C6C6F7" data-original="#c6c6f7"></path></g></g><g><g><path d="m42.5826683 30.891943c-1.3257637 1.771513-3.1317101 2.6371861-5.3805351 2.347353-4.8100624-.6193275-6.5058727-6.8934383-6.4432507-11.752058.0248718-1.8537636 1.2406292-3.7161427 2.7969227-4.0920563.7738419-.1865444 1.385067-.5987949 2.0498619-.9613266.8914948-.4868879 1.9417763-.8140163 3.0102272-.4687185-.1157379.0459108-.2381783.0947199-.3596573.1444616 2.652256.1706886 5.4195786 1.0542889 6.0357666 3.6444016 1.3726311 5.7717685-.6351432 9.7031325-1.7093353 11.1379432z" fill="#5B5E8B" data-original="#5b5e8b"></path></g></g><g><g><path d="m38.7322121 33.2570229c-.482254.0559921-.9925766.0503807-1.5308914-.0168419-4.8008995-.6245041-6.5094032-6.8764763-6.4432888-11.7537365.0280666-1.8505707 1.2393169-3.7179813 2.7982769-4.0936546 1.6446838-.3933849 2.8102875-1.9674215 4.8394547-1.4972143-1.3836517.2829103-2.1402855 1.184247-3.4487534 1.4972143-1.5533485.3756733-2.7702103 2.243084-2.7982445 4.0936546-.0568733 4.8914375 1.6568451 11.1311054 6.4432526 11.7537365.0448722.0056152.0953216.0112266.1401939.0168419z" fill="#312E4B" data-original="#312e4b"></path></g></g></g></g></g></svg>