<svg xmlns="http://www.w3.org/2000/svg" version="1.1" xmlns:xlink="http://www.w3.org/1999/xlink" xmlns:svgjs="http://svgjs.com/svgjs" width="512" height="512" x="0" y="0" viewBox="0 0 512 512" style="enable-background:new 0 0 512 512" xml:space="preserve" class=""><g><g xmlns="http://www.w3.org/2000/svg"><path d="m256 22c-135.31 0-245 109.69-245 245 0 50.841 15.488 98.062 42 137.209v-46.209c0-7.72 6.28-14 14-14h304c7.72 0 14 6.28 14 14v89.078c0 7.72-6.28 14-14 14h-264.521c41.372 31.921 93.224 50.922 149.521 50.922 135.31 0 245-109.69 245-245s-109.69-245-245-245z" fill="#D4F2F6" data-original="#d4f2f6" class=""></path><g><path d="m170.845 172.624c0-7.888 6.417-14.306 14.305-14.306h21.661v-49.207c0-4.254.255-8.449.736-12.577-2.192-.979-4.615-1.535-7.171-1.535h-152.751c-9.734.001-17.625 7.892-17.625 17.626v152.75c0 9.734 7.891 17.625 17.625 17.625h123.22z" fill="#AF66DA" data-original="#af66da"></path><path d="m77 265.375v-152.75c0-9.734 7.891-17.625 17.625-17.625h-47c-9.734 0-17.625 7.891-17.625 17.625v152.75c0 9.734 7.891 17.625 17.625 17.625h47c-9.734 0-17.625-7.891-17.625-17.625z" fill="#9857BD" data-original="#9857bd"></path><g fill="#814AA0"><g fill="#814AA0"><path d="m111.361 224.416c-2.808-1.474-4.726-4.413-4.726-7.804v-11.522c0-8.873 7.219-16.091 16.091-16.091 13.136 0 23.823-10.687 23.823-23.823v-.628c0-12.433-10.115-22.548-22.549-22.548-1.396 0-2.76.134-4.087.378 10.489 1.929 18.462 11.133 18.462 22.171v.628c0 13.136-10.686 23.823-23.823 23.823-8.872 0-16.091 7.218-16.091 16.091v11.522c0 4.867 3.945 8.812 8.812 8.812 1.477 0 2.866-.367 4.088-1.009z" fill="#000000" data-original="#000000"></path><path d="m83.826 167.046v-2.496c0-20.773 15.848-37.913 36.087-39.968-1.344-.136-2.707-.207-4.087-.207-22.152 0-40.174 18.022-40.174 40.174v2.496c0 4.867 3.945 8.812 8.812 8.812 1.476 0 2.865-.367 4.087-1.009-2.807-1.472-4.725-4.411-4.725-7.802z" fill="#000000" data-original="#000000"></path></g><path d="m106.635 244.812v-1.175c0-3.391 1.918-6.33 4.726-7.804-1.222-.641-2.611-1.009-4.087-1.009-4.867 0-8.812 3.946-8.812 8.812v1.175c0 4.867 3.945 8.812 8.812 8.812 1.476 0 2.865-.367 4.087-1.009-2.808-1.471-4.726-4.411-4.726-7.802z" fill="#814AA0" data-original="#814aa0"></path></g><g><g><g><path d="m115.448 225.425c-4.868 0-8.812-3.946-8.812-8.812v-11.522c0-8.873 7.219-16.091 16.091-16.091 13.136 0 23.822-10.687 23.822-23.823v-.628c0-12.434-10.115-22.549-22.549-22.549s-22.549 10.115-22.549 22.549v2.496c0 4.867-3.945 8.812-8.812 8.812-4.868 0-8.812-3.946-8.812-8.812v-2.496c0-22.152 18.022-40.174 40.174-40.174s40.174 18.022 40.174 40.174v.628c0 22.341-17.766 40.61-39.913 41.42v10.016c-.002 4.866-3.946 8.812-8.814 8.812z" fill="#FFFFFF" data-original="#ffffff" class=""></path></g></g><g><path d="m115.448 253.625c-4.868 0-8.812-3.946-8.812-8.812v-1.175c0-4.867 3.945-8.812 8.812-8.812s8.812 3.946 8.812 8.812v1.175c0 4.866-3.944 8.812-8.812 8.812z" fill="#FFFFFF" data-original="#ffffff" class=""></path></g></g></g><g><path d="m374.821 344.543c5.866 1.669 10.179 7.063 10.179 13.457v43h59.695c8.453 0 15.305-6.852 15.305-15.305v-41.151h-85.179z" fill="#FFE177" data-original="#ffe177"></path><path d="m250.047 158.318v-49.207c0-35.772 29.103-64.875 64.875-64.875s64.875 29.103 64.875 64.875v49.207h44.237v-49.207c0-60.164-48.948-109.111-109.112-109.111s-109.112 48.947-109.112 109.111v49.207z" fill="#0681AF" data-original="#0681af" class=""></path><g fill="#017297"><path d="m379.797 109.111v49.207h25.63v-49.207c0-35.772-29.103-64.875-64.875-64.875-4.386 0-8.67.443-12.815 1.277 29.655 5.966 52.06 32.212 52.06 63.598z" fill="#017297" data-original="#017297" class=""></path><path d="m231.44 158.318v-49.207c0-55.829 42.15-101.991 96.297-108.355-4.205-.494-8.479-.756-12.815-.756-60.164 0-109.112 48.947-109.112 109.111v49.207z" fill="#017297" data-original="#017297" class=""></path></g><path d="m444.695 157.318h-259.545c-8.453 0-15.305 6.853-15.305 15.305v171.377h201.155c2.291 0 4.449.564 6.36 1.544h82.64v-172.92c0-8.453-6.853-15.306-15.305-15.306z" fill="#FFC344" data-original="#ffc344" class=""></path><path d="m226.338 344v-171.376c0-8.453 6.853-15.305 15.305-15.305h-56.493c-8.453 0-15.305 6.852-15.305 15.305v171.376z" fill="#FEB137" data-original="#feb137" class=""></path><path d="m310.362 333.335c-14.066 0-25.509-11.443-25.509-25.509v-32.927c-12.398-10.01-19.017-25.513-17.49-41.713 2.165-22.964 21.166-41.48 44.198-43.07 1.116-.077 2.246-.116 3.36-.116 26.344 0 47.775 21.431 47.775 47.775 0 14.599-6.527 28.103-17.707 37.125v32.926c0 14.066-11.443 25.509-25.509 25.509z" fill="#FFE177" data-original="#ffe177"></path><path d="m347.392 237.775c0-18.695-15.8-33.7-34.776-32.39-15.692 1.084-28.538 13.577-30.014 29.238-1.216 12.896 5.122 24.416 15.097 30.671 1.505.944 2.46 2.557 2.46 4.334v38.198c0 5.635 4.568 10.204 10.204 10.204h9.12c5.635 0 10.204-4.568 10.204-10.204v-38.17c0-1.791.959-3.419 2.476-4.372 9.145-5.743 15.229-15.912 15.229-27.509z" fill="#3692BC" data-original="#3692bc"></path><path d="m316.854 307.826v-38.198c0-1.777-.954-3.39-2.46-4.334-9.976-6.255-16.314-17.775-15.097-30.671 1.282-13.593 11.132-24.796 23.972-28.226-3.368-.894-6.948-1.267-10.653-1.012-15.692 1.084-28.538 13.578-30.014 29.238-1.216 12.896 5.121 24.416 15.097 30.671 1.505.944 2.46 2.557 2.46 4.334v38.198c0 5.635 4.568 10.204 10.204 10.204h9.12c1.34 0 2.615-.265 3.787-.734-3.758-1.506-6.416-5.175-6.416-9.47z" fill="#017297" data-original="#017297" class=""></path></g><g><path d="m371 343h-304c-8.284 0-15 6.716-15 15v44.702c15.174 22.765 34.055 42.842 55.784 59.376h263.216c8.284 0 15-6.716 15-15v-89.078c0-8.284-6.716-15-15-15z" fill="#FD6930" data-original="#fd6930" class=""></path><path d="m115 343h-48c-8.284 0-15 6.716-15 15v44.702c15.174 22.765 34.055 42.842 55.784 59.376h7.216c-8.284 0-15-6.716-15-15v-89.078c0-8.284 6.716-15 15-15z" fill="#FD5426" data-original="#fd5426"></path><g fill="#D73D24"><g fill="#D73D24"><path d="m109.74 392.147v-13.829c0-1.717.725-3.261 1.881-4.355-1.075-1.017-2.522-1.645-4.119-1.645-3.313 0-6 2.687-6 6v9.073z" fill="#000000" data-original="#000000"></path><path d="m121.74 392.147 10.73-6.195c-1.88-1.676-4.691-2.048-6.991-.72l-3.739 2.159z" fill="#000000" data-original="#000000"></path><path d="m121.74 412.932v4.756l3.739 2.159c.945.545 1.977.805 2.994.805 1.459 0 2.883-.543 3.99-1.528z" fill="#000000" data-original="#000000"></path><path d="m89.567 417.65c-1.656-2.87-.674-6.539 2.196-8.196l11.976-6.915-11.976-6.915c-2.87-1.657-3.853-5.327-2.196-8.196.329-.57.74-1.062 1.205-1.477l-1.246-.719c-2.872-1.657-6.54-.673-8.196 2.196-1.656 2.87-.674 6.539 2.196 8.196l11.976 6.915-11.976 6.915c-2.87 1.657-3.853 5.327-2.196 8.196 1.111 1.925 3.128 3.001 5.202 3.001 1.018 0 2.05-.259 2.994-.805l1.254-.724c-.467-.415-.883-.901-1.213-1.472z" fill="#000000" data-original="#000000"></path><path d="m109.74 426.76v-13.829l-8.237 4.756v9.073c0 3.313 2.687 6 6 6 1.597 0 3.044-.628 4.119-1.645-1.156-1.093-1.882-2.638-1.882-4.355z" fill="#000000" data-original="#000000"></path></g><g fill="#D73D24"><path d="m158.407 417.65c-1.656-2.87-.674-6.539 2.196-8.196l11.976-6.915-11.976-6.915c-2.87-1.657-3.853-5.327-2.196-8.196.329-.57.74-1.062 1.205-1.477l-1.246-.72c-2.872-1.657-6.539-.673-8.196 2.196-1.656 2.87-.674 6.539 2.196 8.196l11.976 6.915-11.976 6.915c-2.87 1.657-3.853 5.327-2.196 8.196 1.111 1.925 3.128 3.001 5.202 3.001 1.018 0 2.05-.259 2.994-.805l1.254-.724c-.467-.414-.883-.9-1.213-1.471z" fill="#000000" data-original="#000000"></path><path d="m190.58 392.147 10.73-6.195c-1.88-1.676-4.691-2.048-6.991-.72l-3.739 2.159z" fill="#000000" data-original="#000000"></path><path d="m178.58 392.147v-13.829c0-1.717.725-3.261 1.881-4.355-1.075-1.017-2.522-1.645-4.119-1.645-3.313 0-6 2.687-6 6v9.073z" fill="#000000" data-original="#000000"></path><path d="m178.58 426.76v-13.829l-8.237 4.756v9.073c0 3.313 2.687 6 6 6 1.597 0 3.044-.628 4.119-1.645-1.157-1.093-1.882-2.638-1.882-4.355z" fill="#000000" data-original="#000000"></path><path d="m190.58 412.932v4.756l3.739 2.159c.945.545 1.977.805 2.994.805 1.459 0 2.883-.543 3.99-1.528z" fill="#000000" data-original="#000000"></path></g><g fill="#D73D24"><path d="m259.42 392.147 10.73-6.195c-1.88-1.676-4.691-2.048-6.991-.719l-3.739 2.159z" fill="#000000" data-original="#000000"></path><path d="m247.42 392.147v-13.829c0-1.717.725-3.261 1.881-4.355-1.075-1.017-2.522-1.645-4.119-1.645-3.313 0-6 2.687-6 6v9.073z" fill="#000000" data-original="#000000"></path><path d="m227.247 417.65c-1.656-2.87-.674-6.539 2.196-8.196l11.976-6.915-11.976-6.915c-2.87-1.657-3.853-5.327-2.196-8.196.329-.57.74-1.062 1.205-1.477l-1.246-.72c-2.872-1.657-6.539-.673-8.196 2.196-1.656 2.87-.674 6.539 2.196 8.196l11.976 6.915-11.976 6.915c-2.87 1.657-3.853 5.327-2.196 8.196 1.111 1.925 3.128 3.001 5.202 3.001 1.018 0 2.05-.259 2.994-.805l1.254-.724c-.467-.414-.883-.9-1.213-1.471z" fill="#000000" data-original="#000000"></path><path d="m259.42 412.932v4.756l3.739 2.159c.945.545 1.977.805 2.994.805 1.459 0 2.883-.543 3.99-1.528z" fill="#000000" data-original="#000000"></path><path d="m247.42 426.76v-13.829l-8.237 4.756v9.073c0 3.313 2.687 6 6 6 1.597 0 3.044-.628 4.119-1.645-1.157-1.093-1.882-2.638-1.882-4.355z" fill="#000000" data-original="#000000"></path></g><g fill="#D73D24"><path d="m328.26 392.147 10.73-6.195c-1.88-1.676-4.691-2.048-6.991-.719l-3.739 2.159z" fill="#000000" data-original="#000000"></path><path d="m316.26 392.147v-13.829c0-1.717.725-3.261 1.881-4.355-1.075-1.017-2.522-1.645-4.119-1.645-3.313 0-6 2.687-6 6v9.073z" fill="#000000" data-original="#000000"></path><path d="m328.26 412.932v4.756l3.739 2.159c.945.545 1.977.805 2.994.805 1.459 0 2.883-.543 3.99-1.528z" fill="#000000" data-original="#000000"></path><path d="m316.26 426.76v-13.829l-8.237 4.756v9.073c0 3.313 2.687 6 6 6 1.597 0 3.044-.628 4.119-1.645-1.157-1.093-1.882-2.638-1.882-4.355z" fill="#000000" data-original="#000000"></path><path d="m296.087 417.65c-1.656-2.87-.674-6.539 2.196-8.196l11.976-6.915-11.976-6.915c-2.87-1.657-3.853-5.327-2.196-8.196.329-.57.74-1.062 1.205-1.477l-1.246-.72c-2.872-1.657-6.539-.673-8.196 2.196-1.656 2.87-.674 6.539 2.196 8.196l11.976 6.915-11.976 6.915c-2.87 1.657-3.853 5.327-2.196 8.196 1.111 1.925 3.128 3.001 5.202 3.001 1.018 0 2.05-.259 2.994-.805l1.253-.724c-.466-.414-.882-.9-1.212-1.471z" fill="#000000" data-original="#000000"></path></g></g><g fill="#FFFFFF"><path d="m141.913 387.428c-1.656-2.869-5.327-3.854-8.196-2.196l-11.977 6.915v-13.829c0-3.313-2.687-6-6-6s-6 2.687-6 6v13.829l-11.977-6.915c-2.872-1.657-6.54-.673-8.196 2.196-1.656 2.87-.674 6.539 2.196 8.196l11.976 6.915-11.976 6.915c-2.87 1.657-3.853 5.327-2.196 8.196 1.111 1.925 3.128 3.001 5.202 3.001 1.018 0 2.05-.259 2.994-.805l11.977-6.915v13.829c0 3.313 2.687 6 6 6s6-2.687 6-6v-13.829l11.977 6.915c.945.545 1.977.805 2.994.805 2.074 0 4.091-1.076 5.202-3.001 1.656-2.87.674-6.539-2.196-8.196l-11.976-6.915 11.976-6.915c2.87-1.657 3.852-5.326 2.196-8.196z" fill="#FFFFFF" data-original="#ffffff" class=""></path><path d="m210.753 387.428c-1.656-2.869-5.327-3.854-8.196-2.196l-11.977 6.915v-13.829c0-3.313-2.687-6-6-6s-6 2.687-6 6v13.829l-11.977-6.915c-2.872-1.657-6.539-.673-8.196 2.196-1.656 2.87-.674 6.539 2.196 8.196l11.976 6.915-11.976 6.915c-2.87 1.657-3.853 5.327-2.196 8.196 1.111 1.925 3.128 3.001 5.202 3.001 1.018 0 2.05-.259 2.994-.805l11.977-6.915v13.829c0 3.313 2.687 6 6 6s6-2.687 6-6v-13.829l11.977 6.915c.945.545 1.977.805 2.994.805 2.074 0 4.091-1.076 5.202-3.001 1.656-2.87.674-6.539-2.196-8.196l-11.976-6.915 11.976-6.915c2.87-1.657 3.852-5.326 2.196-8.196z" fill="#FFFFFF" data-original="#ffffff" class=""></path><path d="m279.593 387.428c-1.656-2.869-5.326-3.854-8.196-2.196l-11.977 6.915v-13.829c0-3.313-2.687-6-6-6s-6 2.687-6 6v13.829l-11.977-6.915c-2.872-1.657-6.539-.673-8.196 2.196-1.656 2.87-.674 6.539 2.196 8.196l11.976 6.915-11.976 6.915c-2.87 1.657-3.853 5.327-2.196 8.196 1.111 1.925 3.128 3.001 5.202 3.001 1.018 0 2.05-.259 2.994-.805l11.977-6.915v13.829c0 3.313 2.687 6 6 6s6-2.687 6-6v-13.829l11.977 6.915c.945.545 1.977.805 2.994.805 2.074 0 4.091-1.076 5.202-3.001 1.656-2.87.674-6.539-2.196-8.196l-11.976-6.915 11.976-6.915c2.87-1.657 3.852-5.326 2.196-8.196z" fill="#FFFFFF" data-original="#ffffff" class=""></path><path d="m346.236 409.454-11.976-6.915 11.976-6.915c2.87-1.657 3.853-5.327 2.196-8.196-1.656-2.869-5.326-3.854-8.196-2.196l-11.977 6.915v-13.829c0-3.313-2.687-6-6-6s-6 2.687-6 6v13.829l-11.977-6.915c-2.872-1.657-6.539-.673-8.196 2.196-1.656 2.87-.674 6.539 2.196 8.196l11.976 6.915-11.976 6.915c-2.87 1.657-3.853 5.327-2.196 8.196 1.111 1.925 3.128 3.001 5.202 3.001 1.018 0 2.05-.259 2.994-.805l11.977-6.915v13.829c0 3.313 2.687 6 6 6s6-2.687 6-6v-13.829l11.977 6.915c.945.545 1.977.805 2.994.805 2.074 0 4.091-1.076 5.202-3.001 1.657-2.87.674-6.539-2.196-8.196z" fill="#FFFFFF" data-original="#ffffff" class=""></path></g></g></g></g></svg>